Coordinates
version=1
nRows=16
nColumns=22
inDegrees=yes

Units are S.I. units (second, meters, Newtons, ...)
If the header above contains a line with 'inDegrees', this indicates whether rotational values are in degrees (yes) or radians (no).

endheader
time	pelvis_tilt	pelvis_list	pelvis_rotation	pelvis_tx	pelvis_ty	pelvis_tz	hip_flexion_r	hip_adduction_r	hip_rotation_r	knee_angle_r	ankle_angle_r	subtalar_angle_r	hip_flexion_l	hip_adduction_l	hip_rotation_l	knee_angle_l	ankle_angle_l	subtalar_angle_l	lumbar_extension	lumbar_bending	lumbar_rotation
      1.45000000	      0.78966005	     -2.01753416	     -2.28420986	      0.61978425	      1.08205230	     -0.30641029	     -0.56866592	      3.90530777	     -4.06344186	    -10.50802247	      9.49350801	     -5.23760119	      1.20292504	     -3.57275309	     -5.41474226	    -16.74834089	     13.79637906	      3.04690266	     -4.16880344	      0.68764161	     -4.74377600
      1.46000000	      0.75482805	     -2.01707152	     -2.39617994	      0.61838393	      1.08209832	     -0.30493830	     -0.41495218	      3.99441729	     -4.04092777	    -10.56024252	      9.40414800	     -5.39695958	      1.52900951	     -3.66393950	     -5.44156822	    -17.16466816	     13.73050397	      3.10830189	     -4.28950746	      0.71746007	     -4.76299781
      1.47000000	      0.72773744	     -2.00450175	     -2.49130764	      0.61695087	      1.08218656	     -0.30345953	     -0.26846151	      4.07367891	     -4.04356713	    -10.61104444	      9.30734171	     -5.55328807	      1.84690946	     -3.74311899	     -5.45438190	    -17.57023776	     13.63580713	      3.17143868	     -4.41417496	      0.73339584	     -4.77947327
      1.48000000	      0.70712268	     -1.97209254	     -2.56781358	      0.61549159	      1.08231645	     -0.30197740	     -0.12126876	      4.13545347	     -4.07247819	    -10.67341493	      9.20699355	     -5.71147108	      2.15686950	     -3.80143402	     -5.45228695	    -17.96145318	     13.50833109	      3.24069637	     -4.53965364	      0.72517296	     -4.79649862
      1.49000000	      0.68778797	     -1.91536823	     -2.62536265	      0.61398909	      1.08247805	     -0.30051775	      0.03856863	      4.17328235	     -4.13323162	    -10.75492716	      9.10741673	     -5.88171850	      2.46986387	     -3.83334468	     -5.43780084	    -18.34482636	     13.34822239	      3.32388375	     -4.66329590	      0.69253177	     -4.80728109
      1.50000000	      0.67369886	     -1.83404175	     -2.66864111	      0.61244663	      1.08266730	     -0.29903777	      0.21491120	      4.18926198	     -4.21876404	    -10.87267659	      9.00947294	     -6.06443145	      2.78218525	     -3.84175081	     -5.41401589	    -18.72336420	     13.17021066	      3.42534439	     -4.78391090	      0.62622689	     -4.82583965
      1.51000000	      0.65669857	     -1.73258107	     -2.69853611	      0.61082828	      1.08286485	     -0.29756778	      0.41903497	      4.18725289	     -4.32881999	    -11.02437039	      8.91341111	     -6.27138684	      3.10509976	     -3.82957990	     -5.37881002	    -19.09870732	     12.99439974	      3.55668977	     -4.90045539	      0.53999262	     -4.84898283
      1.52000000	      0.64500405	     -1.61702168	     -2.71456582	      0.60914351	      1.08307690	     -0.29608597	      0.64139812	      4.17321315	     -4.48548476	    -11.20829454	      8.81970100	     -6.49023813	      3.42683415	     -3.80408281	     -5.31857819	    -19.46741730	     12.80609429	      3.72390721	     -5.01808493	      0.43156802	     -4.85534419
      1.53000000	      0.63617271	     -1.49214343	     -2.71888755	      0.60736220	      1.08327693	     -0.29459833	      0.88719574	      4.15188640	     -4.67471391	    -11.42692819	      8.73049313	     -6.73221811	      3.75113975	     -3.77061389	     -5.22890354	    -19.83261683	     12.63809865	      3.94152903	     -5.13800768	      0.30904159	     -4.85523919
      1.54000000	      0.63443353	     -1.36241572	     -2.71325475	      0.60549859	      1.08345833	     -0.29311723	      1.14748813	      4.12659803	     -4.88697784	    -11.67551728	      8.65301996	     -6.99119165	      4.06597539	     -3.72994109	     -5.09347114	    -20.18554715	     12.51081430	      4.21965030	     -5.26079503	      0.17794867	     -4.85048836
      1.55000000	      0.63792313	     -1.23583113	     -2.69895551	      0.60351725	      1.08359372	     -0.29165228	      1.42373583	      4.10372335	     -5.10183592	    -11.95060425	      8.58535172	     -7.26982467	      4.37299983	     -3.69147426	     -4.90634479	    -20.52946220	     12.45462733	      4.58082227	     -5.39051131	      0.04881331	     -4.83865498
      1.56000000	      0.65642519	     -1.11375052	     -2.68004589	      0.60144607	      1.08368327	     -0.29021372	      1.69857382	      4.08078093	     -5.31187507	    -12.24455846	      8.53681772	     -7.54113704	      4.65554567	     -3.65371102	     -4.66125645	    -20.86461003	     12.48268208	      5.01915913	     -5.53198542	     -0.07640080	     -4.82256386
      1.57000000	      0.67948725	     -1.01621910	     -2.67038162	      0.59927342	      1.08370470	     -0.28877777	      1.97651400	      4.07963781	     -5.47719322	    -12.54626037	      8.48176215	     -7.80642425	      4.91962738	     -3.64219569	     -4.37794024	    -21.19390201	     12.61840451	      5.56913504	     -5.67417195	     -0.17938356	     -4.77187748
      1.58000000	      0.72610942	     -0.92642324	     -2.64687069	      0.59702837	      1.08367286	     -0.28740035	      2.23209595	      4.07563400	     -5.62764449	    -12.85192286	      8.46746743	     -8.01211119	      5.14865204	     -3.63296035	     -4.03552464	    -21.53064950	     12.85788878	      6.14067282	     -5.83462411	     -0.27532768	     -4.74413537
      1.59000000	      0.78236717	     -0.86541065	     -2.63308222	      0.59472169	      1.08357176	     -0.28604371	      2.47046003	      4.09285445	     -5.73034091	    -13.14484180	      8.46791237	     -8.16692839	      5.35928771	     -3.65675786	     -3.68385002	    -21.90107574	     13.21311841	      6.75115681	     -5.99491673	     -0.34080962	     -4.71418169
      1.60000000	      0.85001640	     -0.84075751	     -2.62526713	      0.59237427	      1.08342034	     -0.28470283	      2.68230904	      4.13988852	     -5.79214396	    -13.41474359	      8.47416463	     -8.25389076	      5.55078604	     -3.72392893	     -3.33487603	    -22.32190687	     13.64903073	      7.33833527	     -6.15344265	     -0.37099491	     -4.68066500
